Coordinates
version=1
nRows=4
nColumns=107
inDegrees=yes

Units are S.I. units (second, meters, Newtons, ...)
If the header above contains a line with 'inDegrees', this indicates whether rotational values are in degrees (yes) or radians (no).

endheader
time	sternoclavicular_r2	sternoclavicular_r3	unrotscap_r3	unrotscap_r2	acromioclavicular_r2	acromioclavicular_r3	acromioclavicular_r1	unrothum_r1	unrothum_r3	unrothum_r2	elv_angle	shoulder_elv	shoulder1_r2	shoulder_rot	elbow_flexion	pro_sup	deviation	flexion	proximal_distal_r1	proximal_distal_r3	cmc_flexion	cmc_abduction	mp_flexion	ip_flexion	mcp2_flexion	mcp2_abduction	pm2_flexion	md2_flexion	mcp3_flexion	mcp3_abduction	pm3_flexion	md3_flexion	mcp4_flexion	mcp4_abduction	pm4_flexion	md4_flexion	mcp5_flexion	mcp5_abduction	pm5_flexion	md5_flexion	bicpt_tx	bicpt_ty	bicpt_tz	bicpt2_tx	bicpt2_ty	bicpt2_tz	ptpt_tx	ptpt_ty	ptpt_tz	FCUpt_tx	FCUpt_ty	FCUpt_tz	EDCpt_tx	EDCpt_ty	EDCpt_tz	APLpt_tx	APLpt_ty	APLpt_tz	FPLpt_tx	FPLpt_ty	FPLpt_tz	FPLpt2_tx	FPLpt2_ty	FPLpt2_tz	PEC1pt2_tx	PEC1pt2_ty	PEC1pt2_tz	PEC1pt3_tx	PEC1pt3_ty	PEC1pt3_tz	PEC2pt2_tx	PEC2pt2_ty	PEC2pt2_tz	PEC2pt3_tx	PEC2pt3_ty	PEC2pt3_tz	PEC3pt2_tx	PEC3pt2_ty	PEC3pt2_tz	PEC3pt3_tx	PEC3pt3_ty	PEC3pt3_tz	DELT2pt2a_tx	DELT2pt2a_ty	DELT2pt2a_tz	DELT2pt2_tx	DELT2pt2_ty	DELT2pt2_tz	LAT1pt2_tx	LAT1pt2_ty	LAT1pt2_tz	LAT1pt3_tx	LAT1pt3_ty	LAT1pt3_tz	LAT2pt2_tx	LAT2pt2_ty	LAT2pt2_tz	LAT2pt3_tx	LAT2pt3_ty	LAT2pt3_tz	LAT3pt2_tx	LAT3pt2_ty	LAT3pt2_tz	LAT3pt3_tx	LAT3pt3_ty	LAT3pt3_tz
      1.36666667	     -0.32907948	      0.13938254	     -0.13938254	      0.32907948	     -0.06663190	      0.53849558	      0.24205006	     -0.24205006	     -0.53849558	      0.06663190	     98.15902275	     77.91249225	     -1.71319814	    -15.13930498	     28.01925022	     22.48844373	     -0.06580038	     -0.55040945	     -0.09284394	     -0.27520472	     31.40655721	    -22.42221491	     -2.71563472	     -5.68909941	     -2.01498592	      4.25554836	     18.82027338	    -28.17889251	     -4.74868128	     -2.50735539	      9.86589265	     11.55665095	     -7.85052575	     -4.31072003	      2.55537808	     18.69040763	    -14.60589579	    -10.18331360	      5.62479757	      5.07318299	      0.00082679	     -0.03081143	     -0.00481728	      0.01619094	     -0.01781157	     -0.00912445	      0.00588836	     -0.06597445	     -0.00186156	      0.00606452	     -0.18381581	     -0.00014665	     -0.00269861	      0.00071521	      0.00018904	      0.00030944	      0.00012378	      0.00061888	      0.00039608	      0.00118825	      0.00066839	     -0.00001027	     -0.00023718	     -0.00028462	      0.00255380	      0.00895994	      0.00623300	     -0.00835396	      0.02017070	     -0.01913186	      0.00255380	      0.00895994	      0.00623300	      0.00056270	      0.01869901	     -0.00982564	      0.00401346	      0.00498251	      0.01612556	      0.00000000	      0.00812093	      0.00000000	     -0.00731512	     -0.03380539	     -0.00669793	      0.01081344	     -0.00028756	     -0.00180433	     -0.00090898	      0.01523623	     -0.00623300	      0.00251052	      0.02198866	     -0.01817960	     -0.00610315	      0.01320185	     -0.00558373	     -0.01272572	      0.02787538	     -0.03120831	     -0.02389318	      0.01476010	     -0.00748826	     -0.01584222	      0.03220386	     -0.03899956
      1.40000000	     -0.32909433	      0.13938883	     -0.13938883	      0.32909433	     -0.06663491	      0.53851989	      0.24206098	     -0.24206098	     -0.53851989	      0.06663491	     98.19669861	     77.91600898	     -1.71385571	    -14.95359966	     27.88183240	     22.35435442	     -0.06842120	     -0.55937258	     -0.09668897	     -0.27968629	     32.45142146	    -22.30816875	     -1.92973025	     -5.38805180	     -3.67915233	      4.61604582	     18.01691971	    -28.47392550	     -5.67666190	     -2.25714092	      9.30742737	     11.37767689	     -8.44843826	     -4.07458385	      2.05145053	     18.60905936	    -14.87893670	    -10.21018078	      5.53300969	      5.03372544	      0.00082224	     -0.03079568	     -0.00481474	      0.01618528	     -0.01777424	     -0.00913545	      0.00589827	     -0.06596804	     -0.00185076	      0.00605175	     -0.18381793	     -0.00014391	     -0.00268252	      0.00071049	      0.00018872	      0.00031028	      0.00012411	      0.00062056	      0.00039716	      0.00119147	      0.00067020	     -0.00001128	     -0.00022623	     -0.00027148	      0.00255392	      0.00896035	      0.00623329	     -0.00835433	      0.02017161	     -0.01913273	      0.00255392	      0.00896035	      0.00623329	      0.00056273	      0.01869986	     -0.00982608	      0.00401359	      0.00498274	      0.01612587	      0.00000000	      0.00812167	      0.00000000	     -0.00731545	     -0.03380692	     -0.00669854	      0.01069390	     -0.00028225	     -0.00175531	     -0.00090902	      0.01523692	     -0.00623329	      0.00251063	      0.02198965	     -0.01818042	     -0.00610343	      0.01320245	     -0.00558399	     -0.01272629	      0.02787664	     -0.03120972	     -0.02389426	      0.01476077	     -0.00748860	     -0.01584294	      0.03220531	     -0.03900132
      1.43333333	     -0.33405702	      0.14149079	     -0.14149079	      0.33405702	     -0.06763975	      0.54664067	      0.24571122	     -0.24571122	     -0.54664067	      0.06763975	     97.40700851	     79.09096805	     -1.70007301	     -9.74353200	     27.69815491	     16.80995867	     -0.06666106	     -0.56457965	     -0.09410520	     -0.28228983	     32.11857426	    -22.33291872	     -1.03298526	     -3.05504548	     -6.54280834	      4.33898869	     18.28461921	    -28.97170674	     -8.22501245	     -2.47876455	      9.52519297	     11.48621304	    -10.64717655	     -4.18716379	      1.11136733	     19.59911559	    -17.56482425	    -10.18171982	      6.62342833	      5.03000655	      0.00081617	     -0.03077463	     -0.00481135	      0.01591594	     -0.01772434	     -0.00956860	      0.00630793	     -0.06570314	     -0.00140413	      0.00552848	     -0.18390112	     -0.00001930	     -0.00201719	      0.00051989	      0.00016717	      0.00031071	      0.00012428	      0.00062141	      0.00039770	      0.00119311	      0.00067113	     -0.00001098	     -0.00022985	     -0.00027582	      0.00259243	      0.00909547	      0.00632728	     -0.00848032	      0.02047579	     -0.01942124	      0.00259243	      0.00909547	      0.00632728	      0.00057121	      0.01898185	     -0.00997426	      0.00405706	      0.00505787	      0.01622813	      0.00000000	      0.00837038	      0.00000000	     -0.00742577	     -0.03431672	     -0.00690487	      0.00715425	     -0.00013986	     -0.00063401	     -0.00092273	      0.01546669	     -0.00632728	      0.00254849	      0.02232125	     -0.01845457	     -0.00619546	      0.01340154	     -0.00566819	     -0.01291820	      0.02829701	     -0.03168035	     -0.02425458	      0.01498336	     -0.00760153	     -0.01608184	      0.03269096	     -0.03958946
      1.46666667	     -0.33382613	      0.14139299	     -0.14139299	      0.33382613	     -0.06759300	      0.54626286	      0.24554139	     -0.24554139	     -0.54626286	      0.06759300	     97.34377446	     79.03630361	     -1.69896937	     -9.85283734	     27.88162856	     16.77271512	     -0.06516938	     -0.56716382	     -0.09192005	     -0.28358191	     32.18827724	    -22.23305880	     -0.98359348	     -3.03911271	     -6.76101130	      4.37572588	     18.19393843	    -29.00180843	     -8.34140264	     -2.46475569	      9.47372808	     11.47166915	    -10.69226814	     -4.21240758	      1.08507755	     19.59140936	    -17.57339752	    -10.25207402	      6.60660555	      5.02416045	      0.00082224	     -0.03079566	     -0.00481474	      0.01591389	     -0.01777418	     -0.00957136	      0.00631069	     -0.06570136	     -0.00140113	      0.00552500	     -0.18390165	     -0.00001839	     -0.00201272	      0.00051864	      0.00016697	      0.00031090	      0.00012436	      0.00062180	      0.00039795	      0.00119386	      0.00067155	     -0.00001105	     -0.00022910	     -0.00027493	      0.00259064	      0.00908918	      0.00632291	     -0.00847446	      0.02046164	     -0.01940782	      0.00259064	      0.00908918	      0.00632291	      0.00057082	      0.01896873	     -0.00996736	      0.00405505	      0.00505438	      0.01622345	      0.00000000	      0.00835872	      0.00000000	     -0.00742064	     -0.03429300	     -0.00689521	      0.00723220	     -0.00014271	     -0.00065233	     -0.00092209	      0.01545600	     -0.00632291	      0.00254673	      0.02230582	     -0.01844182	     -0.00619118	      0.01339227	     -0.00566427	     -0.01290927	      0.02827746	     -0.03165846	     -0.02423782	      0.01497300	     -0.00759627	     -0.01607073	      0.03266837	     -0.03956209
